<svg width="19" height="19" viewBox="0 0 19 19" fill="none" xmlns="http://www.w3.org/2000/svg">
<path d="M6 5H3C2.46957 5 1.96086 5.21071 1.58579 5.58579C1.21071 5.96086 1 6.46957 1 7V16C1 16.5304 1.21071 17.0391 1.58579 17.4142C1.96086 17.7893 2.46957 18 3 18H12C12.5304 18 13.0391 17.7893 13.4142 17.4142C13.7893 17.0391 14 16.5304 14 16V13" stroke="#AFAFAF" stroke-linecap="round" stroke-linejoin="round"/>
<path d="M6 13H9L17.5 4.49997C17.8978 4.10214 18.1213 3.56258 18.1213 2.99997C18.1213 2.43736 17.8978 1.89779 17.5 1.49997C17.1022 1.10214 16.5626 0.878647 16 0.878647C15.4374 0.878647 14.8978 1.10214 14.5 1.49997L6 9.99997V13Z" stroke="#AFAFAF" stroke-linecap="round" stroke-linejoin="round"/>
<path d="M13 3L16 6" stroke="#AFAFAF" stroke-linecap="round" stroke-linejoin="round"/>
</svg>
